<svg width="38" height="38" viewBox="0 0 38 38" fill="none" xmlns="http://www.w3.org/2000/svg">
<g filter="url(#filter0_dd_129_155)">
<path d="M25.25 2.5H12.75C9.29822 2.5 6.5 5.29822 6.5 8.75V21.25C6.5 24.7018 9.29822 27.5 12.75 27.5H25.25C28.7018 27.5 31.5 24.7018 31.5 21.25V8.75C31.5 5.29822 28.7018 2.5 25.25 2.5Z" stroke="white" stroke-width="2" stroke-linecap="round" stroke-linejoin="round"/>
<path d="M24 14.2124C24.1543 15.2527 23.9766 16.3152 23.4922 17.2487C23.0078 18.1822 22.2414 18.9392 21.302 19.412C20.3626 19.8848 19.2981 20.0494 18.2597 19.8823C17.2214 19.7152 16.2622 19.225 15.5185 18.4813C14.7749 17.7377 14.2847 16.7785 14.1176 15.7402C13.9505 14.7018 14.1151 13.6373 14.5879 12.6979C15.0607 11.7585 15.8177 10.9921 16.7512 10.5077C17.6847 10.0233 18.7472 9.84562 19.7875 9.99989C20.8487 10.1572 21.8311 10.6517 22.5896 11.4103C23.3482 12.1688 23.8426 13.1512 24 14.2124Z" stroke="white" stroke-width="2" stroke-linecap="round" stroke-linejoin="round"/>
<path d="M25.875 8.125H25.8875" stroke="white" stroke-width="2" stroke-linecap="round" stroke-linejoin="round"/>
</g>
<defs>
<filter id="filter0_dd_129_155" x="0" y="0" width="38" height="38" filterUnits="userSpaceOnUse" color-interpolation-filters="sRGB">
<feFlood flood-opacity="0" result="BackgroundImageFix"/>
<feColorMatrix in="SourceAlpha" type="matrix" values="0 0 0 0 0 0 0 0 0 0 0 0 0 0 0 0 0 0 127 0" result="hardAlpha"/>
<feOffset dy="4"/>
<feGaussianBlur stdDeviation="2"/>
<feComposite in2="hardAlpha" operator="out"/>
<feColorMatrix type="matrix" values="0 0 0 0 0 0 0 0 0 0 0 0 0 0 0 0 0 0 0.25 0"/>
<feBlend mode="normal" in2="BackgroundImageFix" result="effect1_dropShadow_129_155"/>
<feColorMatrix in="SourceAlpha" type="matrix" values="0 0 0 0 0 0 0 0 0 0 0 0 0 0 0 0 0 0 127 0" result="hardAlpha"/>
<feOffset dy="4"/>
<feGaussianBlur stdDeviation="2"/>
<feComposite in2="hardAlpha" operator="out"/>
<feColorMatrix type="matrix" values="0 0 0 0 0 0 0 0 0 0 0 0 0 0 0 0 0 0 0.25 0"/>
<feBlend mode="normal" in2="effect1_dropShadow_129_155" result="effect2_dropShadow_129_155"/>
<feBlend mode="normal" in="SourceGraphic" in2="effect2_dropShadow_129_155" result="shape"/>
</filter>
</defs>
</svg>
